name C:\Users\r0593348\3dpredictsim\Results\Batchsim_tmt_linear_v2\Pog_s1_tmt_aCst_d02_k500_ig24_pas.mot
datacolumns 128
datarows 4
range 0.00000000 0.03261564
endheader
time	pelvis_tilt	pelvis_list	pelvis_rotation	pelvis_tx	pelvis_ty	pelvis_tz	hip_flexion_l	hip_adduction_l	hip_rotation_l	hip_flexion_r	hip_adduction_r	hip_rotation_r	knee_angle_l	knee_angle_r	ankle_angle_l	ankle_angle_r	subtalar_angle_l	subtalar_angle_r	tmt_angle_l	tmt_angle_r	mtp_angle_l	mtp_angle_r	lumbar_extension	lumbar_bending	lumbar_rotation	arm_flex_l	arm_add_l	arm_rot_l	arm_flex_r	arm_add_r	arm_rot_r	elbow_flex_l	elbow_flex_r	pro_sup_l	pro_sup_r	glut_med1_l/activation	glut_med2_l/activation	glut_med3_l/activation	glut_min1_l/activation	glut_min2_l/activation	glut_min3_l/activation	semimem_l/activation	semiten_l/activation	bifemlh_l/activation	bifemsh_l/activation	sar_l/activation	add_long_l/activation	add_brev_l/activation	add_mag1_l/activation	add_mag2_l/activation	add_mag3_l/activation	tfl_l/activation	pect_l/activation	grac_l/activation	glut_max1_l/activation	glut_max2_l/activation	glut_max3_l/activation	iliacus_l/activation	psoas_l/activation	quad_fem_l/activation	gem_l/activation	peri_l/activation	rect_fem_l/activation	vas_med_l/activation	vas_int_l/activation	vas_lat_l/activation	med_gas_l/activation	lat_gas_l/activation	soleus_l/activation	tib_post_l/activation	flex_dig_l/activation	flex_hal_l/activation	tib_ant_l/activation	per_brev_l/activation	per_long_l/activation	per_tert_l/activation	ext_dig_l/activation	ext_hal_l/activation	ercspn_l/activation	intobl_l/activation	extobl_l/activation	glut_med1_r/activation	glut_med2_r/activation	glut_med3_r/activation	glut_min1_r/activation	glut_min2_r/activation	glut_min3_r/activation	semimem_r/activation	semiten_r/activation	bifemlh_r/activation	bifemsh_r/activation	sar_r/activation	add_long_r/activation	add_brev_r/activation	add_mag1_r/activation	add_mag2_r/activation	add_mag3_r/activation	tfl_r/activation	pect_r/activation	grac_r/activation	glut_max1_r/activation	glut_max2_r/activation	glut_max3_r/activation	iliacus_r/activation	psoas_r/activation	quad_fem_r/activation	gem_r/activation	peri_r/activation	rect_fem_r/activation	vas_med_r/activation	vas_int_r/activation	vas_lat_r/activation	med_gas_r/activation	lat_gas_r/activation	soleus_r/activation	tib_post_r/activation	flex_dig_r/activation	flex_hal_r/activation	tib_ant_r/activation	per_brev_r/activation	per_long_r/activation	per_tert_r/activation	ext_dig_r/activation	ext_hal_r/activation	ercspn_r/activation	intobl_r/activation	extobl_r/activation	
          0.00000000	         -2.90874149	          0.91508177	          5.20740177	          0.00000000	          0.87018008	         -0.00286919	        -17.91191872	          1.29275819	          6.38471512	         26.57747698	         -0.25921461	         -2.99830445	         -6.77336605	         -7.44242902	         -9.65441346	          5.69493005	          8.02587700	          3.16413339	          2.12113979	          0.07085300	         27.55131919	         -0.08918743	          0.49717844	         -2.98395662	         -1.66565806	          3.10303033	        -13.48361048	         11.22002292	         -9.80829474	        -13.45088258	         10.84898212	         28.72745653	         18.09550248	         86.51662706	         86.51662706	          0.25188128	          0.08240214	          0.06119852	          0.24511151	          0.14846145	          0.08240224	          0.05000046	          0.05000004	          0.05000003	          0.05000005	          0.07705301	          0.10973818	          0.05000019	          0.05000025	          0.05000051	          0.05000018	          0.22267033	          0.07892927	          0.05000042	          0.05000080	          0.05000046	          0.05000038	          0.32437186	          0.61859652	          0.05000018	          0.05000031	          0.05000018	          0.26723978	          0.08939471	          0.16040852	          0.05006254	          0.17975237	          0.26025508	          0.23288824	          0.20606828	          0.20422346	          0.26287693	          0.05000000	          0.08460680	          0.16068617	          0.05000003	          0.05000000	          0.05000003	          0.05000000	          0.05000000	          0.05000001	          0.11602174	          0.05000061	          0.12003402	          0.05000014	          0.05000021	          0.05000083	          0.05905995	          0.05905995	          0.10588790	          0.05026456	          0.05000072	          0.05727064	          0.12321661	          0.10151132	          0.18509871	          0.15583761	          0.05000021	          0.05000176	          0.05906000	          0.06976122	          0.13620911	          0.16653223	          0.05000008	          0.05000006	          0.13392397	          0.05000043	          0.05000774	          0.05000006	          0.06164275	          0.10692944	          0.05000140	          0.05905986	          0.05364553	          0.05905989	          0.05000009	          0.05905991	          0.05905989	          0.51352160	          0.30822885	          0.18342976	          0.32292742	          0.50878295	          0.29719944	          0.05000006	          0.12919453	          0.12344026	
          0.01087188	         -2.88637867	          0.95092905	          5.34220235	          0.01727854	          0.86883137	         -0.00271095	        -17.64483607	          1.14036040	          6.15882694	         26.09575767	         -0.06708804	         -2.78607242	         -9.06447148	         -7.67953044	        -10.37276713	          5.01862115	          9.17570458	          2.69695906	          1.90284132	          0.08673926	         28.27955169	         -0.07609258	          0.73432976	         -2.78022840	         -1.72354496	          2.81508254	        -13.51680588	         11.50876334	        -11.02173256	        -13.45036211	         10.64542853	         29.60456908	         18.12009310	         86.51662706	         86.51662706	          0.21324223	          0.06976150	          0.05181060	          0.20751097	          0.12568720	          0.06976160	          0.05000034	          0.05000003	          0.05000003	          0.05000002	          0.06523297	          0.17775997	          0.21010939	          0.13578412	          0.05000119	          0.05000056	          0.18851230	          0.09668665	          0.05000028	          0.05000073	          0.05000046	          0.05000058	          0.27461261	          0.52370288	          0.06191616	          0.05906006	          0.05905988	          0.22624470	          0.13580182	          0.13580193	          0.13108766	          0.15217801	          0.22033147	          0.19716274	          0.17445703	          0.17289526	          0.22255115	          0.05000000	          0.07162799	          0.13998160	          0.05000003	          0.05000001	          0.05000003	          0.05601435	          0.07232450	          0.06941026	          0.09822381	          0.05000038	          0.13250636	          0.05000077	          0.05000037	          0.05000011	          0.05000005	          0.05000006	          0.08964451	          0.05000001	          0.05000008	          0.08240192	          0.10431670	          0.24443488	          0.23986043	          0.16045819	          0.05000014	          0.05000090	          0.05000019	          0.05905997	          0.16083894	          0.19672931	          0.05000003	          0.05000007	          0.25946920	          0.08319763	          0.11776094	          0.06976154	          0.26662465	          0.29083915	          0.21738608	          0.05000000	          0.05000000	          0.05000000	          0.05000000	          0.05000008	          0.05000004	          0.61449129	          0.30423594	          0.17009374	          0.55142714	          0.56961809	          0.33536811	          0.05000000	          0.10937585	          0.10450429	
          0.02174376	         -2.85774331	          0.96581332	          5.45137042	          0.03475139	          0.86733168	         -0.00256145	        -17.27374176	          0.98034894	          5.92319808	         25.51336295	          0.08815122	         -2.52443376	        -11.54475831	         -8.46625270	        -11.01872639	          4.29083086	         10.29495675	          2.21312999	          1.59164417	         -0.06856006	         28.49860378	         -0.12967922	          0.98331820	         -2.54299445	         -1.77117900	          2.47253525	        -13.55428117	         11.76021964	        -12.22525330	        -13.46244854	         10.51714598	         30.47304939	         18.12441049	         86.51662706	         86.51662706	          0.21062406	          0.05905996	          0.05000005	          0.17567843	          0.10640656	          0.05906005	          0.06620022	          0.05000006	          0.05000011	          0.05000001	          0.05522615	          0.17314869	          0.39404212	          0.11496424	          0.05906083	          0.10695034	          0.15959418	          0.08185549	          0.05000024	          0.05000428	          0.05903367	          0.05905980	          0.23248653	          0.47229791	          0.05888058	          0.05000032	          0.05000002	          0.19153833	          0.11496958	          0.11496967	          0.11097858	          0.12883362	          0.18653221	          0.16691761	          0.14769500	          0.14637283	          0.18841140	          0.05000010	          0.06931224	          0.14069703	          0.05000005	          0.16083852	          0.05000034	          0.05759286	          0.06122978	          0.05905991	          0.27322086	          0.21987451	          0.28945421	          0.05000011	          0.05000012	          0.15277315	          0.07625954	          0.05000023	          0.09440729	          0.05000006	          0.05000046	          0.06976145	          0.08831437	          0.20693815	          0.20306561	          0.17504470	          0.05000013	          0.06975662	          0.06052043	          0.05000013	          0.17453265	          0.18046001	          0.05000064	          0.05000016	          0.21966614	          0.07043499	          0.09969660	          0.05905999	          0.22572394	          0.24622389	          0.18403865	          0.05905991	          0.05905994	          0.05905989	          0.05000012	          0.05905991	          0.05905991	          0.52022716	          0.33562492	          0.17403007	          0.46683719	          0.56589531	          0.28392202	          0.05000000	          0.09259739	          0.08847314	
          0.03261564	         -2.82612167	          0.96644742	          5.53342199	          0.05219551	          0.86568099	         -0.00241244	        -16.79567303	          0.82378218	          5.67938509	         24.81378581	          0.23194405	         -2.23878478	        -14.19186938	         -9.28898866	        -11.49160376	          3.78687232	         11.34122188	          1.69461137	          1.20367278	         -0.00689804	         27.93435881	         -0.17334210	          1.22387363	         -2.28194187	         -1.80861462	          2.11436447	        -13.59817128	         11.99505777	        -13.37235069	        -13.48684804	         10.48590962	         31.31655215	         18.08103366	         86.51662706	         86.51662706	          0.17831395	          0.05000006	          0.05000000	          0.15263047	          0.09008361	          0.05000015	          0.08950774	          0.05000026	          0.05000013	          0.05000075	          0.05906016	          0.19197872	          0.33359539	          0.09732858	          0.05000096	          0.09054402	          0.13511216	          0.06976182	          0.05000038	          0.05000013	          0.05000008	          0.05000009	          0.19682266	          0.42159767	          0.05000000	          0.05000005	          0.05000003	          0.16215599	          0.09733303	          0.09733311	          0.09395426	          0.10907030	          0.15791782	          0.14131213	          0.12503834	          0.12391901	          0.15950879	          0.07554738	          0.09648200	          0.11911386	          0.09733343	          0.20789840	          0.06170081	          0.08972249	          0.05183702	          0.05000002	          0.33708132	          0.35988987	          0.43900494	          0.21058572	          0.20621295	          0.32016291	          0.06456122	          0.08347310	          0.07992506	          0.06976149	          0.05000027	          0.05905993	          0.07476680	          0.17519348	          0.18089527	          0.19007598	          0.05000006	          0.05905604	          0.07000319	          0.23672497	          0.22480230	          0.21178653	          0.05000004	          0.05000003	          0.18596896	          0.05963024	          0.25664848	          0.05000008	          0.19109748	          0.20845270	          0.15580679	          0.05000002	          0.05000004	          0.05000000	          0.05000000	          0.05000004	          0.05000003	          0.66581713	          0.28413944	          0.14733354	          0.69088249	          0.62673570	          0.43766954	          0.05151439	          0.07839278	          0.07490119	
